<svg id="export-svg" width="100%" xmlns="http://www.w3.org/2000/svg" class="flowchart" style="max-width: 536.437px; background: rgb(255, 255, 255);" viewBox="227.23951721191406 35.14210510253906 536.43701171875 753.128662109375" role="graphics-document document" aria-roledescription="flowchart-v2"><style xmlns="http://www.w3.org/1999/xhtml">p {margin: 0;}</style><style>#export-svg{font-family:arial,sans-serif;font-size:14px;fill:#333;}@keyframes edge-animation-frame{from{stroke-dashoffset:0;}}@keyframes dash{to{stroke-dashoffset:0;}}#export-svg .edge-animation-slow{stroke-dasharray:9,5!important;stroke-dashoffset:900;animation:dash 50s linear infinite;stroke-linecap:round;}#export-svg .edge-animation-fast{stroke-dasharray:9,5!important;stroke-dashoffset:900;animation:dash 20s linear infinite;stroke-linecap:round;}#export-svg .error-icon{fill:#ffffff;}#export-svg .error-text{fill:#000000;stroke:#000000;}#export-svg .edge-thickness-normal{stroke-width:2px;}#export-svg .edge-thickness-thick{stroke-width:3.5px;}#export-svg .edge-pattern-solid{stroke-dasharray:0;}#export-svg .edge-thickness-invisible{stroke-width:0;fill:none;}#export-svg .edge-pattern-dashed{stroke-dasharray:3;}#export-svg .edge-pattern-dotted{stroke-dasharray:2;}#export-svg .marker{fill:#000000;stroke:#000000;}#export-svg .marker.cross{stroke:#000000;}#export-svg svg{font-family:arial,sans-serif;font-size:14px;}#export-svg p{margin:0;}#export-svg .label{font-family:arial,sans-serif;color:#333;}#export-svg .cluster-label text{fill:#000000;}#export-svg .cluster-label span{color:#000000;}#export-svg .cluster-label span p{background-color:transparent;}#export-svg .label text,#export-svg span{fill:#333;color:#333;}#export-svg .node rect,#export-svg .node circle,#export-svg .node ellipse,#export-svg .node polygon,#export-svg .node path{fill:#ffffff;stroke:#000000;stroke-width:2px;}#export-svg .rough-node .label text,#export-svg .node .label text,#export-svg .image-shape .label,#export-svg .icon-shape .label{text-anchor:middle;}#export-svg .node .katex path{fill:#000;stroke:#000;stroke-width:1px;}#export-svg .rough-node .label,#export-svg .node .label,#export-svg .image-shape .label,#export-svg .icon-shape .label{text-align:center;}#export-svg .node.clickable{cursor:pointer;}#export-svg .root .anchor path{fill:#000000!important;stroke-width:0;stroke:#000000;}#export-svg .arrowheadPath{fill:#000000;}#export-svg .edgePaths .path{stroke:#000000;stroke-width:2px;}#export-svg .flowchart-link{stroke:#000000;fill:none;}#export-svg .edgeLabel{background-color:hsl(-120, 0%, 80%);text-align:center;}#export-svg .edgeLabel p{background-color:hsl(-120, 0%, 80%);}#export-svg .edgeLabel rect{opacity:0.5;background-color:hsl(-120, 0%, 80%);fill:hsl(-120, 0%, 80%);}#export-svg .labelBkg{background-color:rgba(204, 204, 204, 0.5);}#export-svg .cluster rect{fill:#ffffff;stroke:hsl(0, 0%, 90%);stroke-width:2px;}#export-svg .cluster text{fill:#000000;}#export-svg .cluster span{color:#000000;}#export-svg .node .collapsed-indicator{fill:hsl(0, 0%, 90%);stroke:none;opacity:0.6;}#export-svg .node .collapsed-separator{stroke:hsl(0, 0%, 90%);stroke-width:0.75px;}#export-svg div.mermaidTooltip{position:absolute;text-align:center;max-width:200px;padding:2px;font-family:arial,sans-serif;font-size:12px;background:#ffffff;border:1px solid hsl(0, 0%, 90%);border-radius:2px;pointer-events:none;z-index:100;}#export-svg .flowchartTitleText{text-anchor:middle;font-size:18px;fill:#333;}#export-svg rect.text{fill:none;stroke-width:0;}#export-svg .icon-shape,#export-svg .image-shape{background-color:hsl(-120, 0%, 80%);text-align:center;}#export-svg .icon-shape p,#export-svg .image-shape p{background-color:hsl(-120, 0%, 80%);padding:2px;}#export-svg .icon-shape .label rect,#export-svg .image-shape .label rect{opacity:0.5;background-color:hsl(-120, 0%, 80%);fill:hsl(-120, 0%, 80%);}#export-svg .label-icon{display:inline-block;height:1em;overflow:visible;vertical-align:-0.125em;}#export-svg .node .label-icon path{fill:currentColor;stroke:revert;stroke-width:revert;}#export-svg .node .neo-node{stroke:#000000;}#export-svg [data-look="neo"].node rect,#export-svg [data-look="neo"].cluster rect,#export-svg [data-look="neo"].node polygon{stroke:url(#export-svg-gradient);filter:drop-shadow( 0px 1px 2px rgba(0, 0, 0, 0.25));}#export-svg [data-look="neo"].swimlane.cluster rect{filter:none;}#export-svg [data-look="neo"].node path{stroke:url(#export-svg-gradient);stroke-width:2px;}#export-svg [data-look="neo"].node .outer-path{filter:drop-shadow( 0px 1px 2px rgba(0, 0, 0, 0.25));}#export-svg [data-look="neo"].node .neo-line path{stroke:#000000;filter:none;}#export-svg [data-look="neo"].node circle{stroke:url(#export-svg-gradient);filter:drop-shadow( 0px 1px 2px rgba(0, 0, 0, 0.25));}#export-svg [data-look="neo"].node circle .state-start{fill:#000000;}#export-svg [data-look="neo"].icon-shape .icon{fill:url(#export-svg-gradient);filter:drop-shadow( 0px 1px 2px rgba(0, 0, 0, 0.25));}#export-svg [data-look="neo"].icon-shape .icon-neo path{stroke:url(#export-svg-gradient);filter:drop-shadow( 0px 1px 2px rgba(0, 0, 0, 0.25));}#export-svg :root{--mermaid-font-family:"trebuchet ms",verdana,arial,sans-serif;}#export-svg .Sky&gt;*{stroke-width:1px!important;stroke-dasharray:none!important;stroke:rgb(55, 77, 124)!important;fill:rgb(226, 235, 255)!important;color:rgb(55, 77, 124)!important;}#export-svg .Sky span{stroke-width:1px!important;stroke-dasharray:none!important;stroke:rgb(55, 77, 124)!important;fill:rgb(226, 235, 255)!important;color:rgb(55, 77, 124)!important;}#export-svg .Sky tspan{fill:rgb(55, 77, 124)!important;}#export-svg .Class_01&gt;*{stroke:rgba(200, 206, 220, 0.29)!important;fill:rgba(52, 120, 147, 0.19)!important;}#export-svg .Class_01 span{stroke:rgba(200, 206, 220, 0.29)!important;fill:rgba(52, 120, 147, 0.19)!important;}#export-svg .Ash&gt;*{stroke-width:1px!important;stroke-dasharray:none!important;stroke:rgb(153, 153, 153)!important;fill:rgb(238, 238, 238)!important;color:rgb(0, 0, 0)!important;}#export-svg .Ash span{stroke-width:1px!important;stroke-dasharray:none!important;stroke:rgb(153, 153, 153)!important;fill:rgb(238, 238, 238)!important;color:rgb(0, 0, 0)!important;}#export-svg .Ash tspan{fill:rgb(0, 0, 0)!important;}#export-svg .Rose&gt;*{stroke-width:1px!important;stroke-dasharray:none!important;stroke:rgb(255, 89, 120)!important;fill:rgb(255, 223, 229)!important;color:rgb(142, 34, 54)!important;}#export-svg .Rose span{stroke-width:1px!important;stroke-dasharray:none!important;stroke:rgb(255, 89, 120)!important;fill:rgb(255, 223, 229)!important;color:rgb(142, 34, 54)!important;}#export-svg .Rose tspan{fill:rgb(142, 34, 54)!important;}#export-svg .Pine&gt;*{stroke-width:1px!important;stroke-dasharray:none!important;stroke:rgb(37, 67, 54)!important;fill:rgb(39, 101, 74)!important;color:rgb(255, 255, 255)!important;}#export-svg .Pine span{stroke-width:1px!important;stroke-dasharray:none!important;stroke:rgb(37, 67, 54)!important;fill:rgb(39, 101, 74)!important;color:rgb(255, 255, 255)!important;}#export-svg .Pine tspan{fill:rgb(255, 255, 255)!important;}#export-svg .Peach&gt;*{stroke-width:1px!important;stroke-dasharray:none!important;stroke:rgb(251, 179, 90)!important;fill:rgb(255, 239, 219)!important;color:rgb(143, 99, 45)!important;}#export-svg .Peach span{stroke-width:1px!important;stroke-dasharray:none!important;stroke:rgb(251, 179, 90)!important;fill:rgb(255, 239, 219)!important;color:rgb(143, 99, 45)!important;}#export-svg .Peach tspan{fill:rgb(143, 99, 45)!important;}#export-svg .Aqua&gt;*{stroke-width:1px!important;stroke-dasharray:none!important;stroke:rgb(70, 237, 200)!important;fill:rgb(222, 255, 248)!important;color:rgb(55, 142, 122)!important;}#export-svg .Aqua span{stroke-width:1px!important;stroke-dasharray:none!important;stroke:rgb(70, 237, 200)!important;fill:rgb(222, 255, 248)!important;color:rgb(55, 142, 122)!important;}#export-svg .Aqua tspan{fill:rgb(55, 142, 122)!important;}</style><g><marker id="export-svg_flowchart-v2-pointEnd" class="marker flowchart-v2" viewBox="0 0 11.5 14" refX="7.75" refY="7" markerUnits="userSpaceOnUse" markerWidth="10.5" markerHeight="14" orient="auto"><path d="M 0 0 L 11.5 7 L 0 14 z" class="arrowMarkerPath" style="stroke-width: 0; stroke-dasharray: 1, 0;"/></marker><marker id="export-svg_flowchart-v2-pointStart" class="marker flowchart-v2" viewBox="0 0 11.5 14" refX="4" refY="7" markerUnits="userSpaceOnUse" markerWidth="11.5" markerHeight="14" orient="auto"><polygon points="0,7 11.5,14 11.5,0" class="arrowMarkerPath" style="stroke-width: 0; stroke-dasharray: 1, 0;"/></marker><marker id="export-svg_flowchart-v2-pointEnd-margin" class="marker flowchart-v2" viewBox="0 0 11.5 14" refX="11.5" refY="7" markerUnits="userSpaceOnUse" markerWidth="10.5" markerHeight="14" orient="auto"><path d="M 0 0 L 11.5 7 L 0 14 z" class="arrowMarkerPath" style="stroke-width: 0; stroke-dasharray: 1, 0;"/></marker><marker id="export-svg_flowchart-v2-pointStart-margin" class="marker flowchart-v2" viewBox="0 0 11.5 14" refX="1" refY="7" markerUnits="userSpaceOnUse" markerWidth="11.5" markerHeight="14" orient="auto"><polygon points="0,7 11.5,14 11.5,0" class="arrowMarkerPath" style="stroke-width: 0; stroke-dasharray: 1, 0;"/></marker><marker id="export-svg_flowchart-v2-circleEnd" class="marker flowchart-v2" viewBox="0 0 10 10" refY="5" refX="10.75" markerUnits="userSpaceOnUse" markerWidth="14" markerHeight="14" orient="auto"><circle cx="5" cy="5" r="5" class="arrowMarkerPath" style="stroke-width: 0; stroke-dasharray: 1, 0;"/></marker><marker id="export-svg_flowchart-v2-circleStart" class="marker flowchart-v2" viewBox="0 0 10 10" refX="0" refY="5" markerUnits="userSpaceOnUse" markerWidth="14" markerHeight="14" orient="auto"><circle cx="5" cy="5" r="5" class="arrowMarkerPath" style="stroke-width: 0; stroke-dasharray: 1, 0;"/></marker><marker id="export-svg_flowchart-v2-circleEnd-margin" class="marker flowchart-v2" viewBox="0 0 10 10" refY="5" refX="12.25" markerUnits="userSpaceOnUse" markerWidth="14" markerHeight="14" orient="auto"><circle cx="5" cy="5" r="5" class="arrowMarkerPath" style="stroke-width: 0; stroke-dasharray: 1, 0;"/></marker><marker id="export-svg_flowchart-v2-circleStart-margin" class="marker flowchart-v2" viewBox="0 0 10 10" refX="-2" refY="5" markerUnits="userSpaceOnUse" markerWidth="14" markerHeight="14" orient="auto"><circle cx="5" cy="5" r="5" class="arrowMarkerPath" style="stroke-width: 0; stroke-dasharray: 1, 0;"/></marker><marker id="export-svg_flowchart-v2-crossEnd" class="marker cross flowchart-v2" viewBox="0 0 15 15" refX="17.7" refY="7.5" markerUnits="userSpaceOnUse" markerWidth="12" markerHeight="12" orient="auto"><path d="M 1,1 L 14,14 M 1,14 L 14,1" class="arrowMarkerPath" style="stroke-width: 2.5;"/></marker><marker id="export-svg_flowchart-v2-crossStart" class="marker cross flowchart-v2" viewBox="0 0 15 15" refX="-3.5" refY="7.5" markerUnits="userSpaceOnUse" markerWidth="12" markerHeight="12" orient="auto"><path d="M 1,1 L 14,14 M 1,14 L 14,1" class="arrowMarkerPath" style="stroke-width: 2.5; stroke-dasharray: 1, 0;"/></marker><marker id="export-svg_flowchart-v2-crossEnd-margin" class="marker cross flowchart-v2" viewBox="0 0 15 15" refX="17.7" refY="7.5" markerUnits="userSpaceOnUse" markerWidth="12" markerHeight="12" orient="auto"><path d="M 1,1 L 14,14 M 1,14 L 14,1" class="arrowMarkerPath" style="stroke-width: 2.5;"/></marker><marker id="export-svg_flowchart-v2-crossStart-margin" class="marker cross flowchart-v2" viewBox="0 0 15 15" refX="-3.5" refY="7.5" markerUnits="userSpaceOnUse" markerWidth="12" markerHeight="12" orient="auto"><path d="M 1,1 L 14,14 M 1,14 L 14,1" class="arrowMarkerPath" style="stroke-width: 2.5; stroke-dasharray: 1, 0;"/></marker><g class="root"><g class="clusters"/><g class="nodes"><g class="node default" id="export-svg-flowchart-n5-0" data-look="neo" data-id="n5" data-node="true" data-et="node" transform="translate(684.3630981445312, 73.95368957519531)"><rect class="basic label-container" style="" data-id="n5" x="-67.4675598144531" y="-30.81158447265625" width="134.9351196289062" height="61.6231689453125" stroke="url(#gradient)"/><g class="label" style="" transform="translate(-51.4609375, -18.81158447265625)"><rect/><foreignObject width="102.921875" height="37.6231689453125"><div xmlns="http://www.w3.org/1999/xhtml" style="display: table-cell; white-space: normal; overflow-wrap: break-word; line-height: 1.5; max-width: 102.935px; text-align: center;"><span class="nodeLabel"><p><svg xmlns="http://www.w3.org/2000/svg" width="0.88em" height="1em" viewBox="0 0 448 512" class="label-icon"><path fill="currentColor" d="M288 0H128c-17.7 0-32 14.3-32 32s14.3 32 32 32v132.8c0 11.8-3.3 23.5-9.5 33.5L10.3 406.2C3.6 417.2 0 429.7 0 442.6C0 480.9 31.1 512 69.4 512h309.2c38.3 0 69.4-31.1 69.4-69.4c0-12.8-3.6-25.4-10.3-36.4L329.5 230.4c-6.2-10.1-9.5-21.7-9.5-33.5V64c17.7 0 32-14.3 32-32S337.7 0 320 0zm-96 196.8V64h64v132.8c0 23.7 6.6 46.9 19 67.1l34.5 56.1h-171l34.5-56.1c12.4-20.2 19-43.4 19-67.1"/></svg> PHL LabVantage</p></span></div></foreignObject></g></g><g class="node default Sky" id="export-svg-flowchart-n7-1" data-look="neo" data-id="n7" data-node="true" data-et="node" transform="translate(684.3630981445312, 180.33706665039062)"><g class="basic label-container outer-path" transform="translate(4.293780920075834, 0)"><path d="M67.01963460726792 -32.702186584472656 C37.7720741339573 -32.702186584472656, 8.524513660646676 -32.702186584472656, -67.01963460726792 -32.702186584472656 C-67.01963460726792 -32.702186584472656, -67.01963460726792 -32.702186584472656, -67.01963460726792 -32.702186584472656 C-67.34631034163314 -32.60428089237527, -67.67298607599835 -32.50637520027788, -68.36302524973195 -32.29956840145037 C-68.78950133948122 -31.90966651192327, -69.21597742923049 -31.519764622396167, -69.67333715612058 -31.101627648262674 C-70.03292376080645 -30.53442959145231, -70.39251036549231 -29.967231534641943, -70.91830609862264 -29.137861601990455 C-71.19359834773296 -28.495439885071487, -71.46889059684328 -27.853018168152524, -72.06727681005869 -26.456624700058796 C-72.3671311676385 -25.481374204189787, -72.66698552521834 -24.50612370832078, -73.09195781829798 -23.12393789350836 C-73.42853383395453 -21.623247235692794, -73.7651098496111 -20.12255657787723, -73.96711807619641 -19.221862992069795 C-74.13632617680263 -18.17036426835479, -74.30553427740885 -17.11886554463978, -74.67120823371413 -14.846482030060645 C-74.83226051001657 -13.365842065443633, -74.99331278631901 -11.885202100826621, -75.18689125443176 -10.10553140782247 C-75.27967269677059 -8.633848328659203, -75.37245413910942 -7.162165249495937, -75.50146931092544 -5.115749063987798 C-75.53665192840676 -3.4133910089334254, -75.57183454588805 -1.711032953879053, -75.60719644741958 -4.004862812579396e-15 C-75.5686662338958 1.864335971876895, -75.53013602037201 3.728671943753794, -75.50146931092544 5.11574906398779 C-75.40294582576375 6.678511426348402, -75.30442234060206 8.241273788709014, -75.18689125443176 10.105531407822463 C-75.00709627781751 11.758483070005216, -74.82730130120325 13.411434732187967, -74.67120823371413 14.84648203006064 C-74.43999893633301 16.283270695829458, -74.2087896389519 17.720059361598278, -73.96711807619641 19.221862992069788 C-73.7172760231641 20.335833142865216, -73.46743397013178 21.449803293660644, -73.09195781829798 23.123937893508355 C-72.68479065342245 24.44821406094986, -72.27762348854692 25.772490228391362, -72.06727681005869 26.456624700058793 C-71.83107737437557 27.007819466701257, -71.59487793869245 27.559014233343724, -70.91830609862264 29.13786160199045 C-70.59402599688592 29.649368541265947, -70.26974589514919 30.160875480541446, -69.67333715612058 31.10162764826267 C-69.39547091592905 31.355664333297373, -69.11760467573752 31.60970101833208, -68.36302524973195 32.29956840145037 C-67.94027162005013 32.426268925384626, -67.5175179903683 32.55296944931889, -67.01963460726792 32.702186584472656 C-30.71945520444484 32.702186584472656, 5.580724198378235 32.702186584472656, 67.01963460726792 32.702186584472656 C67.01963460726792 32.702186584472656, 67.01963460726792 32.702186584472656, 67.01963460726792 32.702186584472656 C66.64264564360283 32.58920186746443, 66.26565667993773 32.476217150456215, 65.67624396480389 32.29956840145037 C65.23462386018008 31.89582123394279, 64.79300375555628 31.49207406643521, 64.36593205841525 31.101627648262674 C64.09314781642594 30.671348294225027, 63.82036357443663 30.241068940187382, 63.1209631159132 29.137861601990455 C62.83095443474377 28.461097633951486, 62.540945753574334 27.784333665912513, 61.971992404477156 26.456624700058796 C61.70947161085843 25.602798408458444, 61.4469508172397 24.748972116858095, 60.94731139623785 23.12393789350836 C60.676551321847946 21.916700612046814, 60.40579124745804 20.70946333058527, 60.07215113833942 19.221862992069795 C59.86529188957031 17.93639122511481, 59.658432640801195 16.650919458159827, 59.36806098082172 14.846482030060645 C59.2408445230739 13.67691289497628, 59.11362806532609 12.507343759891913, 58.85237796010407 10.10553140782247 C58.760081254281296 8.641537134853055, 58.66778454845851 7.177542861883639, 58.53779990361039 5.115749063987798 C58.514591018173995 3.9927560663098274, 58.49138213273759 2.8697630686318565, 58.43207276711625 4.004862812579396e-15 C58.46739847345163 -1.709281600849405, 58.50272417978701 -3.418563201698814, 58.53779990361039 -5.11574906398779 C58.64579204284193 -6.828701568102746, 58.75378418207347 -8.541654072217701, 58.85237796010407 -10.105531407822463 C59.00527068759277 -11.511156263406232, 59.15816341508147 -12.91678111899, 59.36806098082172 -14.84648203006064 C59.548528057065035 -15.967946662442744, 59.728995133308345 -17.08941129482485, 60.07215113833942 -19.221862992069788 C60.3448393730035 -20.43769735702994, 60.617527607667576 -21.653531721990092, 60.94731139623784 -23.123937893508355 C61.269434551082256 -24.17161573627331, 61.59155770592667 -25.21929357903826, 61.971992404477156 -26.456624700058793 C62.423737930803874 -27.51081760803629, 62.87548345713059 -28.565010516013793, 63.1209631159132 -29.13786160199045 C63.45858014924801 -29.670405703350607, 63.79619718258282 -30.202949804710762, 64.36593205841525 -31.10162764826267 C64.82684357507105 -31.523011813913197, 65.28775509172684 -31.944395979563726, 65.67624396480389 -32.29956840145037 C66.01601545169287 -32.40139892964514, 66.35578693858184 -32.50322945783991, 67.01963460726792 -32.702186584472656 C67.01963460726792 -32.702186584472656, 67.01963460726792 -32.702186584472656, 67.01963460726792 -32.702186584472656" stroke="none" stroke-width="0" fill="#E2EBFF" style="stroke-width:1px !important;stroke-dasharray:none !important;stroke:#374D7C !important;fill:#E2EBFF !important"/><path d="M67.01963460726792 -32.702186584472656 C29.05228006207082 -32.702186584472656, -8.915074483126276 -32.702186584472656, -67.01963460726792 -32.702186584472656 M67.01963460726792 -32.702186584472656 C24.33470342880816 -32.702186584472656, -18.350227749651594 -32.702186584472656, -67.01963460726792 -32.702186584472656 M-67.01963460726792 -32.702186584472656 C-67.01963460726792 -32.702186584472656, -67.01963460726792 -32.702186584472656, -67.01963460726792 -32.702186584472656 M-67.01963460726792 -32.702186584472656 C-67.01963460726792 -32.702186584472656, -67.01963460726792 -32.702186584472656, -67.01963460726792 -32.702186584472656 M-67.01963460726792 -32.702186584472656 C-67.39555854987368 -32.589521057452984, -67.77148249247944 -32.47685553043331, -68.36302524973195 -32.29956840145037 M-67.01963460726792 -32.702186584472656 C-67.4158183502613 -32.5834491348397, -67.81200209325468 -32.46471168520674, -68.36302524973195 -32.29956840145037 M-68.36302524973195 -32.29956840145037 C-68.66663053427241 -32.02200002901867, -68.97023581881288 -31.744431656586972, -69.67333715612058 -31.101627648262674 M-68.36302524973195 -32.29956840145037 C-68.81152496779877 -31.889531609869785, -69.26002468586559 -31.479494818289197, -69.67333715612058 -31.101627648262674 M-69.67333715612058 -31.101627648262674 C-69.97062956335274 -30.632690058571686, -70.26792197058491 -30.163752468880702, -70.91830609862264 -29.137861601990455 M-69.67333715612058 -31.101627648262674 C-70.14847305795129 -30.352166581784275, -70.623608959782 -29.60270551530588, -70.91830609862264 -29.137861601990455 M-70.91830609862264 -29.137861601990455 C-71.33326575201343 -28.1695121702686, -71.74822540540421 -27.20116273854675, -72.06727681005869 -26.456624700058796 M-70.91830609862264 -29.137861601990455 C-71.36010944182128 -28.106869762607168, -71.80191278501992 -27.075877923223885, -72.06727681005869 -26.456624700058796 M-72.06727681005869 -26.456624700058796 C-72.31614370206579 -25.647206548546038, -72.56501059407289 -24.837788397033282, -73.09195781829798 -23.12393789350836 M-72.06727681005869 -26.456624700058796 C-72.32779426733568 -25.609314087524908, -72.58831172461267 -24.76200347499102, -73.09195781829798 -23.12393789350836 M-73.09195781829798 -23.12393789350836 C-73.41838002982456 -21.668519977333087, -73.74480224135115 -20.21310206115782, -73.96711807619641 -19.221862992069795 M-73.09195781829798 -23.12393789350836 C-73.36488459618059 -21.907039936483216, -73.63781137406319 -20.69014197945807, -73.96711807619641 -19.221862992069795 M-73.96711807619641 -19.221862992069795 C-74.237088284166 -17.544204959717447, -74.5070584921356 -15.8665469273651, -74.67120823371413 -14.846482030060645 M-73.96711807619641 -19.221862992069795 C-74.14050683093589 -18.144384705498922, -74.31389558567538 -17.06690641892805, -74.67120823371413 -14.846482030060645 M-74.67120823371413 -14.846482030060645 C-74.86993642511509 -13.019467168552232, -75.06866461651605 -11.192452307043819, -75.18689125443176 -10.10553140782247 M-74.67120823371413 -14.846482030060645 C-74.80086881177492 -13.654442785910904, -74.93052938983573 -12.462403541761162, -75.18689125443176 -10.10553140782247 M-75.18689125443176 -10.10553140782247 C-75.28602802425104 -8.533041231035611, -75.3851647940703 -6.96055105424875, -75.50146931092544 -5.115749063987798 M-75.18689125443176 -10.10553140782247 C-75.29399742586548 -8.406631970612544, -75.4011035972992 -6.70773253340262, -75.50146931092544 -5.115749063987798 M-75.50146931092544 -5.115749063987798 C-75.52890695288686 -3.7881420196990234, -75.55634459484826 -2.4605349754102486, -75.60719644741958 -4.004862812579396e-15 M-75.50146931092544 -5.115749063987798 C-75.52862911100661 -3.801585771094623, -75.55578891108777 -2.487422478201448, -75.60719644741958 -4.004862812579396e-15 M-75.60719644741958 -4.004862812579396e-15 C-75.56982973454801 1.8080384349352745, -75.53246302167643 3.616076869870553, -75.50146931092544 5.11574906398779 M-75.60719644741958 -4.004862812579396e-15 C-75.56805699088362 1.8938150107751532, -75.52891753434764 3.7876300215503105, -75.50146931092544 5.11574906398779 M-75.50146931092544 5.11574906398779 C-75.40986294428154 6.568793297134379, -75.31825657763763 8.021837530280967, -75.18689125443176 10.105531407822463 M-75.50146931092544 5.11574906398779 C-75.39159271613597 6.858592473957734, -75.2817161213465 8.601435883927678, -75.18689125443176 10.105531407822463 M-75.18689125443176 10.105531407822463 C-74.99915906442526 11.831454130247748, -74.81142687441874 13.557376852673032, -74.67120823371413 14.84648203006064 M-75.18689125443176 10.105531407822463 C-75.05349289914344 11.331934042971522, -74.92009454385511 12.558336678120583, -74.67120823371413 14.84648203006064 M-74.67120823371413 14.84648203006064 C-74.4412051754081 16.27577484401504, -74.21120211710206 17.70506765796944, -73.96711807619641 19.221862992069788 M-74.67120823371413 14.84648203006064 C-74.51567314707252 15.813013446172645, -74.36013806043091 16.779544862284652, -73.96711807619641 19.221862992069788 M-73.96711807619641 19.221862992069788 C-73.76716739843225 20.113382589980624, -73.5672167206681 21.004902187891457, -73.09195781829798 23.123937893508355 M-73.96711807619641 19.221862992069788 C-73.78963284020261 20.01321597970476, -73.61214760420881 20.80456896733973, -73.09195781829798 23.123937893508355 M-73.09195781829798 23.123937893508355 C-72.69605394748473 24.411581166207196, -72.30015007667147 25.699224438906036, -72.06727681005869 26.456624700058793 M-73.09195781829798 23.123937893508355 C-72.7612756841525 24.199453079958687, -72.43059355000702 25.27496826640902, -72.06727681005869 26.456624700058793 M-72.06727681005869 26.456624700058793 C-71.80963211970364 27.057864091534068, -71.55198742934859 27.659103483009343, -70.91830609862264 29.13786160199045 M-72.06727681005869 26.456624700058793 C-71.63334639806156 27.469244275072075, -71.19941598606445 28.481863850085357, -70.91830609862264 29.13786160199045 M-70.91830609862264 29.13786160199045 C-70.6385756308488 29.579097664970547, -70.35884516307497 30.02033372795064, -69.67333715612058 31.10162764826267 M-70.91830609862264 29.13786160199045 C-70.61701907431663 29.613100146757255, -70.31573205001061 30.088338691524058, -69.67333715612058 31.10162764826267 M-69.67333715612058 31.10162764826267 C-69.32185096702116 31.422970702578127, -68.97036477792174 31.744313756893582, -68.36302524973195 32.29956840145037 M-69.67333715612058 31.10162764826267 C-69.29438253164842 31.448083470003102, -68.91542790717625 31.794539291743533, -68.36302524973195 32.29956840145037 M-68.36302524973195 32.29956840145037 C-67.85562341765407 32.45163824415723, -67.3482215855762 32.60370808686409, -67.01963460726792 32.702186584472656 M-68.36302524973195 32.29956840145037 C-67.969152504183 32.417613238255285, -67.57527975863405 32.535658075060205, -67.01963460726792 32.702186584472656 M-67.01963460726792 32.702186584472656 C-18.790785165718333 32.702186584472656, 29.438064275831252 32.702186584472656, 67.01963460726792 32.702186584472656 M-67.01963460726792 32.702186584472656 C-20.757961682147013 32.702186584472656, 25.503711242973893 32.702186584472656, 67.01963460726792 32.702186584472656 M67.01963460726792 32.702186584472656 C67.01963460726792 32.702186584472656, 67.01963460726792 32.702186584472656, 67.01963460726792 32.702186584472656 M67.01963460726792 32.702186584472656 C67.01963460726792 32.702186584472656, 67.01963460726792 32.702186584472656, 67.01963460726792 32.702186584472656 M67.01963460726792 32.702186584472656 C66.64298850917525 32.58930462529929, 66.26634241108259 32.476422666125934, 65.67624396480389 32.29956840145037 M67.01963460726792 32.702186584472656 C66.63260087361228 32.586191419933655, 66.24556713995663 32.47019625539466, 65.67624396480389 32.29956840145037 M65.67624396480389 32.29956840145037 C65.15990496220935 31.827510160467842, 64.64356595961482 31.355451919485315, 64.36593205841525 31.101627648262674 M65.67624396480389 32.29956840145037 C65.21221460688751 31.87533377776019, 64.74818524897114 31.451099154070008, 64.36593205841525 31.101627648262674 M64.36593205841525 31.101627648262674 C64.10722279981434 30.693549630769564, 63.84851354121343 30.285471613276453, 63.1209631159132 29.137861601990455 M64.36593205841525 31.101627648262674 C64.050262180566 30.603702144430084, 63.73459230271675 30.105776640597494, 63.1209631159132 29.137861601990455 M63.1209631159132 29.137861601990455 C62.8517128256947 28.509539394292606, 62.58246253547619 27.881217186594757, 61.971992404477156 26.456624700058796 M63.1209631159132 29.137861601990455 C62.74228282413087 28.25417365219753, 62.36360253234854 27.3704857024046, 61.971992404477156 26.456624700058796 M61.971992404477156 26.456624700058796 C61.58926516687334 25.211837293037934, 61.20653792926952 23.96704988601707, 60.94731139623785 23.12393789350836 M61.971992404477156 26.456624700058796 C61.61171956330181 25.284868285243785, 61.25144672212647 24.113111870428778, 60.94731139623785 23.12393789350836 M60.94731139623785 23.12393789350836 C60.76829102502818 22.325740202240972, 60.589270653818495 21.52754251097359, 60.07215113833942 19.221862992069795 M60.94731139623785 23.12393789350836 C60.620876069346394 21.668461499887812, 60.294440742454945 20.21298510626726, 60.07215113833942 19.221862992069795 M60.07215113833942 19.221862992069795 C59.80143750839891 17.53958516166522, 59.5307238784584 15.857307331260644, 59.36806098082172 14.846482030060645 M60.07215113833942 19.221862992069795 C59.84958489492608 17.838784285715143, 59.627018651512735 16.45570557936049, 59.36806098082172 14.846482030060645 M59.36806098082172 14.846482030060645 C59.246774692744516 13.731432125705943, 59.12548840466732 12.616382221351241, 58.85237796010407 10.10553140782247 M59.36806098082172 14.846482030060645 C59.16282154351956 12.959605792345165, 58.95758210621741 11.072729554629683, 58.85237796010407 10.10553140782247 M58.85237796010407 10.10553140782247 C58.78328779345549 9.009635217483464, 58.714197626806914 7.913739027144455, 58.53779990361039 5.115749063987798 M58.85237796010407 10.10553140782247 C58.7832813320007 9.009532727012845, 58.714184703897324 7.913534046203219, 58.53779990361039 5.115749063987798 M58.53779990361039 5.115749063987798 C58.495697030526166 3.0785451756201265, 58.453594157441934 1.0413412872524548, 58.43207276711625 4.004862812579396e-15 M58.53779990361039 5.115749063987798 C58.512307300460776 3.8822553269423987, 58.48681469731116 2.648761589896999, 58.43207276711625 4.004862812579396e-15 M58.43207276711625 4.004862812579396e-15 C58.46913432473497 -1.7932730894344193, 58.506195882353694 -3.5865461788688426, 58.53779990361039 -5.11574906398779 M58.43207276711625 4.004862812579396e-15 C58.463479077185966 -1.5196363646086872, 58.49488538725568 -3.0392727292173785, 58.53779990361039 -5.11574906398779 M58.53779990361039 -5.11574906398779 C58.6018461250754 -6.1316390743001286, 58.665892346540396 -7.147529084612468, 58.85237796010407 -10.105531407822463 M58.53779990361039 -5.11574906398779 C58.64861332520523 -6.873452257582765, 58.759426746800074 -8.63115545117774, 58.85237796010407 -10.105531407822463 M58.85237796010407 -10.105531407822463 C58.95881750677406 -11.084087254616849, 59.06525705344405 -12.062643101411236, 59.36806098082172 -14.84648203006064 M58.85237796010407 -10.105531407822463 C59.02734679435089 -11.71411375447476, 59.2023156285977 -13.322696101127057, 59.36806098082172 -14.84648203006064 M59.36806098082172 -14.84648203006064 C59.520094250052416 -15.79125233352464, 59.672127519283116 -16.736022636988643, 60.07215113833942 -19.221862992069788 M59.36806098082172 -14.84648203006064 C59.64947669880422 -16.595265139331445, 59.930892416786726 -18.34404824860225, 60.07215113833942 -19.221862992069788 M60.07215113833942 -19.221862992069788 C60.39505332248333 -20.661586170763172, 60.717955506627234 -22.101309349456557, 60.94731139623784 -23.123937893508355 M60.07215113833942 -19.221862992069788 C60.29008289465135 -20.193554780923744, 60.50801465096328 -21.1652465697777, 60.94731139623784 -23.123937893508355 M60.94731139623784 -23.123937893508355 C61.216521031508336 -23.99951906701312, 61.48573066677883 -24.87510024051789, 61.971992404477156 -26.456624700058793 M60.94731139623784 -23.123937893508355 C61.25600914928623 -24.127950772173744, 61.564706902334606 -25.131963650839136, 61.971992404477156 -26.456624700058793 M61.971992404477156 -26.456624700058793 C62.27196070925772 -27.156630435785758, 62.571929014038275 -27.856636171512722, 63.1209631159132 -29.13786160199045 M61.971992404477156 -26.456624700058793 C62.21694853168138 -27.028254073268275, 62.46190465888561 -27.599883446477754, 63.1209631159132 -29.13786160199045 M63.1209631159132 -29.13786160199045 C63.40926987047505 -29.592625569340235, 63.6975766250369 -30.04738953669002, 64.36593205841525 -31.10162764826267 M63.1209631159132 -29.13786160199045 C63.617943196232865 -29.921778834049263, 64.11492327655253 -30.70569606610808, 64.36593205841525 -31.10162764826267 M64.36593205841525 -31.10162764826267 C64.74208284719842 -31.445520088703795, 65.11823363598158 -31.789412529144922, 65.67624396480389 -32.29956840145037 M64.36593205841525 -31.10162764826267 C64.67592017700693 -31.38503146872282, 64.98590829559862 -31.668435289182966, 65.67624396480389 -32.29956840145037 M65.67624396480389 -32.29956840145037 C66.08765763263618 -32.42287030499002, 66.49907130046847 -32.546172208529676, 67.01963460726792 -32.702186584472656 M65.67624396480389 -32.29956840145037 C66.20799456859784 -32.458935643675495, 66.7397451723918 -32.61830288590061, 67.01963460726792 -32.702186584472656 M67.01963460726792 -32.702186584472656 C67.01963460726792 -32.702186584472656, 67.01963460726792 -32.702186584472656, 67.01963460726792 -32.702186584472656 M67.01963460726792 -32.702186584472656 C67.01963460726792 -32.702186584472656, 67.01963460726792 -32.702186584472656, 67.01963460726792 -32.702186584472656" stroke="#374D7C" stroke-width="1" fill="none" stroke-dasharray="0 0" style="stroke-width:1px !important;stroke-dasharray:none !important;stroke:#374D7C !important;fill:#E2EBFF !important"/></g><g class="label" style="color:#374D7C !important" transform="translate(-48.1875, -10.5)"><rect/><foreignObject width="96.375" height="21"><div style="color: rgb(55, 77, 124) !important; display: table-cell; white-space: normal; overflow-wrap: break-word; line-height: 1.5; max-width: 102.039px; text-align: center;" xmlns="http://www.w3.org/1999/xhtml"><span style="color:#374D7C !important" class="nodeLabel"><p><svg xmlns="http://www.w3.org/2000/svg" width="0.88em" height="1em" viewBox="0 0 448 512" class="label-icon"><path fill="currentColor" d="M448 80v48c0 44.2-100.3 80-224 80S0 172.2 0 128V80C0 35.8 100.3 0 224 0s224 35.8 224 80m-54.8 134.7c20.8-7.4 39.9-16.9 54.8-28.6V288c0 44.2-100.3 80-224 80S0 332.2 0 288V186.1c14.9 11.8 34 21.2 54.8 28.6C99.7 230.7 159.5 240 224 240s124.3-9.3 169.2-25.3M0 346.1c14.9 11.8 34 21.2 54.8 28.6C99.7 390.7 159.5 400 224 400s124.3-9.3 169.2-25.3c20.8-7.4 39.9-16.9 54.8-28.6V432c0 44.2-100.3 80-224 80S0 476.2 0 432z"/></svg> subtype data<br /></p></span></div></foreignObject></g></g><g class="node default" id="export-svg-flowchart-n8-3" data-look="neo" data-id="n8" data-node="true" data-et="node" transform="translate(684.3630981445312, 341.88209533691395)"><path d="M0,12.252906810283916 a60.07696533203125,12.252906810283916 0,0,0 120.1539306640625,0 a60.07696533203125,12.252906810283916 0,0,0 -120.1539306640625,0 l0,131.15083310794776 a60.07696533203125,12.252906810283916 0,0,0 120.1539306640625,0 l0,-131.15083310794776" class="basic label-container outer-path" style="" transform="translate(-60.07696533203125, -77.8283233642578)"/><g class="label" style="" transform="translate(-16.34375, -3)"><rect/><foreignObject width="32.6875" height="21"><div xmlns="http://www.w3.org/1999/xhtml" style="display: table-cell; white-space: normal; overflow-wrap: break-word; line-height: 1.5; max-width: 96.1539px; text-align: center;"><span class="nodeLabel"><p>LIMS<br /></p></span></div></foreignObject></g></g><g class="node default Peach" id="export-svg-flowchart-n13-5" data-look="neo" data-id="n13" data-node="true" data-et="node" transform="translate(604.607666015625, 558.9050903320312)"><rect class="basic label-container" style="stroke-width:4px !important;stroke-dasharray:0 !important;stroke:#FBB35A !important;fill:#FFEFDB !important" data-id="n13" x="-59.0223083496094" y="-23.516876220703125" width="118.0446166992188" height="47.03375244140625" stroke="url(#gradient)"/><g class="label" style="color:#8F632D !important" transform="translate(-35.2109375, -10.5)"><rect/><foreignObject width="70.421875" height="21"><div style="color: rgb(143, 99, 45) !important; display: table-cell; white-space: normal; overflow-wrap: break-word; line-height: 1.5; max-width: 86.0446px; text-align: center;" xmlns="http://www.w3.org/1999/xhtml"><span style="color:#8F632D !important" class="nodeLabel"><p><svg xmlns="http://www.w3.org/2000/svg" width="1.25em" height="1em" viewBox="0 0 640 512" class="label-icon"><path fill="currentColor" d="M392.8 1.2c-17-4.9-34.7 5-39.6 22l-128 448c-4.9 17 5 34.7 22 39.6s34.7-5 39.6-22l128-448c4.9-17-5-34.7-22-39.6m80.6 120.1c-12.5 12.5-12.5 32.8 0 45.3l89.3 89.4l-89.4 89.4c-12.5 12.5-12.5 32.8 0 45.3s32.8 12.5 45.3 0l112-112c12.5-12.5 12.5-32.8 0-45.3l-112-112c-12.5-12.5-32.8-12.5-45.3 0zm-306.7 0c-12.5-12.5-32.8-12.5-45.3 0l-112 112c-12.5 12.5-12.5 32.8 0 45.3l112 112c12.5 12.5 32.8 12.5 45.3 0s12.5-32.8 0-45.3L77.3 256l89.4-89.4c12.5-12.5 12.5-32.8 0-45.3"/></svg> main.py <br /></p></span></div></foreignObject></g></g><g class="node default Peach Pine Rose" id="export-svg-flowchart-n14-7" data-look="neo" data-id="n14" data-node="true" data-et="node" transform="translate(335.004409790039, 558.9050903320312)"><g transform="translate(5, 5)" class="basic label-container outer-path"><path d="M-104.76487731933595 -33.092620849609375 L94.76487731933595 -33.092620849609375 L94.76487731933595 23.092620849609375 L-104.76487731933595 23.092620849609375 L-104.76487731933595 -33.092620849609375 M-104.76487731933595 -23.092620849609375 L94.76487731933595 -23.092620849609375 L94.76487731933595 23.092620849609375 L-104.76487731933595 23.092620849609375 L-104.76487731933595 -23.092620849609375 M-94.76487731933595 -33.092620849609375 L94.76487731933595 -33.092620849609375 L94.76487731933595 23.092620849609375 L-94.76487731933595 23.092620849609375 L-94.76487731933595 -33.092620849609375" stroke="none" stroke-width="0" fill="#FFDFE5" style="stroke-width:1px !important;stroke-dasharray:none !important;stroke:#FF5978 !important;fill:#FFDFE5 !important"/><path d="M-104.76487731933595 -33.092620849609375 C-57.23733835119136 -33.092620849609375, -9.709799383046771 -33.092620849609375, 94.76487731933595 -33.092620849609375 M-104.76487731933595 -33.092620849609375 C-55.91302826571012 -33.092620849609375, -7.061179212084284 -33.092620849609375, 94.76487731933595 -33.092620849609375 M94.76487731933595 -33.092620849609375 C94.76487731933595 -13.04814968485606, 94.76487731933595 6.996321479897254, 94.76487731933595 23.092620849609375 M94.76487731933595 -33.092620849609375 C94.76487731933595 -11.61922729616974, 94.76487731933595 9.854166257269895, 94.76487731933595 23.092620849609375 M94.76487731933595 23.092620849609375 C32.56782151737556 23.092620849609375, -29.629234284584825 23.092620849609375, -104.76487731933595 23.092620849609375 M94.76487731933595 23.092620849609375 C30.71040623363315 23.092620849609375, -33.34406485206965 23.092620849609375, -104.76487731933595 23.092620849609375 M-104.76487731933595 23.092620849609375 C-104.76487731933595 1.76666006285868, -104.76487731933595 -19.559300723892015, -104.76487731933595 -33.092620849609375 M-104.76487731933595 23.092620849609375 C-104.76487731933595 7.025317399109678, -104.76487731933595 -9.041986051390019, -104.76487731933595 -33.092620849609375 M-104.76487731933595 -23.092620849609375 C-53.09069018972088 -23.092620849609375, -1.4165030601058106 -23.092620849609375, 94.76487731933595 -23.092620849609375 M-104.76487731933595 -23.092620849609375 C-40.54407591383921 -23.092620849609375, 23.676725491657535 -23.092620849609375, 94.76487731933595 -23.092620849609375 M94.76487731933595 -23.092620849609375 C94.76487731933595 -9.42910774229104, 94.76487731933595 4.234405365027296, 94.76487731933595 23.092620849609375 M94.76487731933595 -23.092620849609375 C94.76487731933595 -11.79311989780909, 94.76487731933595 -0.4936189460088052, 94.76487731933595 23.092620849609375 M94.76487731933595 23.092620849609375 C47.060945764145316 23.092620849609375, -0.6429857910453194 23.092620849609375, -104.76487731933595 23.092620849609375 M94.76487731933595 23.092620849609375 C25.31559663707371 23.092620849609375, -44.13368404518853 23.092620849609375, -104.76487731933595 23.092620849609375 M-104.76487731933595 23.092620849609375 C-104.76487731933595 5.447681367789887, -104.76487731933595 -12.197258114029601, -104.76487731933595 -23.092620849609375 M-104.76487731933595 23.092620849609375 C-104.76487731933595 8.950642462058807, -104.76487731933595 -5.19133592549176, -104.76487731933595 -23.092620849609375 M-94.76487731933595 -33.092620849609375 C-26.759909570673827 -33.092620849609375, 41.2450581779883 -33.092620849609375, 94.76487731933595 -33.092620849609375 M-94.76487731933595 -33.092620849609375 C-48.088200474729916 -33.092620849609375, -1.411523630123881 -33.092620849609375, 94.76487731933595 -33.092620849609375 M94.76487731933595 -33.092620849609375 C94.76487731933595 -11.975471838382266, 94.76487731933595 9.141677172844844, 94.76487731933595 23.092620849609375 M94.76487731933595 -33.092620849609375 C94.76487731933595 -14.702295261196507, 94.76487731933595 3.68803032721636, 94.76487731933595 23.092620849609375 M94.76487731933595 23.092620849609375 C38.327259830795306 23.092620849609375, -18.11035765774534 23.092620849609375, -94.76487731933595 23.092620849609375 M94.76487731933595 23.092620849609375 C36.11698801239054 23.092620849609375, -22.530901294554866 23.092620849609375, -94.76487731933595 23.092620849609375 M-94.76487731933595 23.092620849609375 C-94.76487731933595 11.274208780670747, -94.76487731933595 -0.5442032882678802, -94.76487731933595 -33.092620849609375 M-94.76487731933595 23.092620849609375 C-94.76487731933595 3.897902595173271, -94.76487731933595 -15.296815659262833, -94.76487731933595 -33.092620849609375" stroke="#FF5978" stroke-width="1" fill="none" stroke-dasharray="0 0" style="stroke-width:1px !important;stroke-dasharray:none !important;stroke:#FF5978 !important;fill:#FFDFE5 !important"/></g><g class="label" style="color:#8E2236 !important" transform="translate(-21.84375, -5.5)"><rect/><foreignObject width="53.6875" height="21"><div style="color: rgb(142, 34, 54) !important; display: table-cell; white-space: normal; overflow-wrap: break-word; line-height: 1.5; max-width: 157.53px; text-align: center;" xmlns="http://www.w3.org/1999/xhtml"><span style="color:#8E2236 !important" class="nodeLabel"><p><svg xmlns="http://www.w3.org/2000/svg" width="1em" height="1em" viewBox="0 0 512 512" class="label-icon"><path fill="currentColor" d="M0 96c0-35.3 28.7-64 64-64h384c35.3 0 64 28.7 64 64v320c0 35.3-28.7 64-64 64H64c-35.3 0-64-28.7-64-64zm64 0v64h64V96zm384 0H192v64h256zM64 224v64h64v-64zm384 0H192v64h256zM64 352v64h64v-64zm384 0H192v64h256z"/></svg> roster<br /></p></span></div></foreignObject></g></g><g class="node default" id="export-svg-flowchart-n19-8" data-look="neo" data-id="n19" data-node="true" data-et="node" transform="translate(604.607666015625, 714.7869873046875)"><path d="M0,12.655845515438143 a64.0781307220459,12.655845515438143 0,0,0 128.1562614440918,0 a64.0781307220459,12.655845515438143 0,0,0 -128.1562614440918,0 l0,105.65582928803757 a64.0781307220459,12.655845515438143 0,0,0 128.1562614440918,0 l0,-105.65582928803757 M0,23.2214284442419 a64.0781307220459,12.655845515438143 0,0,0 128.1562614440918,0" class="basic label-container outer-path" style="" transform="translate(-64.0781307220459, -65.48376015945692)"/><g class="label" style="" transform="translate(-48.078125, -9)"><rect/><foreignObject width="96.15625" height="42"><div xmlns="http://www.w3.org/1999/xhtml" style="display: table-cell; white-space: normal; overflow-wrap: break-word; line-height: 1.5; max-width: 96.1563px; text-align: center;"><span class="nodeLabel"><p>Internal DuckDB</p></span></div></foreignObject></g></g><g class="node default" id="export-svg-flowchart-n6-9" data-look="neo" data-id="n6" data-node="true" data-et="node" transform="translate(335.004409790039, 339.0246429443359)"><path d="M0,12.301692018536801 a60.54788970947265,12.301692018536801 0,0,0 121.0957794189453,0 a60.54788970947265,12.301692018536801 0,0,0 -121.0957794189453,0 l0,125.3299045371452 a60.54788970947265,12.301692018536801 0,0,0 121.0957794189453,0 l0,-125.3299045371452" class="basic label-container outer-path" style="" transform="translate(-60.54788970947265, -74.9666442871094)"/><g class="label" style="" transform="translate(-48.546875, -13.5)"><rect/><foreignObject width="97.09375" height="42"><div xmlns="http://www.w3.org/1999/xhtml" style="display: table-cell; white-space: normal; overflow-wrap: break-word; line-height: 1.5; max-width: 97.0958px; text-align: center;"><span class="nodeLabel"><p>WDRS case data<br /></p></span></div></foreignObject></g></g></g><g class="edgePaths"><path d="M684.3630981445312,104.76527404785156L684.3630981445312,123.20007705688472Q684.3630981445312,123.45007705688478 684.6130981445312,123.45007705688478L684.6130981445312,123.45007705688478Q684.8630981445314,123.45007705688478 684.8630981445314,123.70007705688484L684.8630981445314,138.134880065918" id="export-svg-L_n5_n7_0" class="edge-thickness-normal edge-pattern-solid edge-thickness-normal edge-pattern-solid flowchart-link" style="stroke-dasharray: 0 0 29.681243896484375 4; stroke-dashoffset: 0;;" data-edge="true" data-et="edge" data-id="L_n5_n7_0" data-points="W3sieCI6Njg0LjM2MzA5ODE0NDUzMTIsInkiOjEwNC43NjUyNzQwNDc4NTE1NiwicG9zIjoiYiJ9LHsieCI6Njg0LjM2MzA5ODE0NDUzMTIsInkiOjEyMy40NTAwNzcwNTY4ODQ3OH0seyJ4Ijo2ODQuODYzMDk4MTQ0NTMxNCwieSI6MTIzLjQ1MDA3NzA1Njg4NDc4fSx7IngiOjY4NC44NjMwOTgxNDQ1MzE0LCJ5IjoxNDIuMTM0ODgwMDY1OTE4LCJwb3MiOiJ0In1d" data-look="neo" marker-end="url(#export-svg_flowchart-v2-pointEnd-margin)"/><path d="M684.8630981445311,207.5392532348633L684.8630981445311,235.54651260375977Q684.8630981445311,235.7965126037597 684.6130981445312,235.7965126037597L684.6130981445312,235.7965126037597Q684.3630981445312,235.7965126037597 684.3630981445312,236.04651260375965L684.3630981445312,260.05377197265614" id="export-svg-L_n7_n8_0" class="edge-thickness-normal edge-pattern-solid edge-thickness-normal edge-pattern-solid flowchart-link" style="stroke-dasharray: 0 0 48.82616424560547 4; stroke-dashoffset: 0;;" data-edge="true" data-et="edge" data-id="L_n7_n8_0" data-points="W3sieCI6Njg0Ljg2MzA5ODE0NDUzMTEsInkiOjIwNy41MzkyNTMyMzQ4NjMzLCJwb3MiOiJiIn0seyJ4Ijo2ODQuODYzMDk4MTQ0NTMxMSwieSI6MjM1Ljc5NjUxMjYwMzc1OTd9LHsieCI6Njg0LjM2MzA5ODE0NDUzMTIsInkiOjIzNS43OTY1MTI2MDM3NTk3fSx7IngiOjY4NC4zNjMwOTgxNDQ1MzEyLCJ5IjoyNjQuMDUzNzcxOTcyNjU2MTQsInBvcyI6InQifV0=" data-look="neo" marker-end="url(#export-svg_flowchart-v2-pointEnd-margin)"/><path d="M655.7613752629339,418.23271128762127L655.7613752629339,469.7393948876092Q655.7613752629339,476.81046269947467 648.6903074510685,476.81046269947467L620.3211296498612,476.81046269947467Q613.2500618379956,476.81046269947467 613.2500618379956,483.88153051134015L613.2500618379956,531.3882141113281" id="export-svg-L_n8_n13_0" class="edge-thickness-thick edge-pattern-solid edge-thickness-normal edge-pattern-solid flowchart-link" style="stroke-dasharray: 0 0 146.33847045898438 4; stroke-dashoffset: 0;;" data-edge="true" data-et="edge" data-id="L_n8_n13_0" data-points="W3sieCI6NjU1Ljc2MTM3NTI2MjkzMzksInkiOjQxOC4yMzI3MTEyODc2MjEyNywicG9zIjoiYiJ9LHsieCI6NjU1Ljc2MTM3NTI2MjkzMzksInkiOjQ3Ni44MTA0NjI2OTk0NzQ2N30seyJ4Ijo2MTMuMjUwMDYxODM3OTk1NiwieSI6NDc2LjgxMDQ2MjY5OTQ3NDY3fSx7IngiOjYxMy4yNTAwNjE4Mzc5OTU2LCJ5Ijo1MzUuMzg4MjE0MTExMzI4MSwicG9zIjoidCJ9XQ==" data-look="neo" marker-end="url(#export-svg_flowchart-v2-pointEnd-margin)"/><path d="M545.5853576660156,558.9050903320312L490.67732238769526,558.9050903320312Q490.4273223876953,558.9050903320312 490.4273223876953,559.1550903320312L490.4273223876953,559.1550903320312Q490.4273223876953,559.4050903320311 490.17732238769537,559.4050903320311L439.269287109375,559.4050903320311" id="export-svg-L_n13_n14_0" class="edge-thickness-normal edge-pattern-solid edge-thickness-normal edge-pattern-solid flowchart-link" style="stroke-dasharray: 0 0 102.62770080566406 4; stroke-dashoffset: 0;;" data-edge="true" data-et="edge" data-id="L_n13_n14_0" data-points="W3sieCI6NTQ1LjU4NTM1NzY2NjAxNTYsInkiOjU1OC45MDUwOTAzMzIwMzEyLCJwb3MiOiJsIn0seyJ4Ijo0OTAuNDI3MzIyMzg3Njk1MywieSI6NTU4LjkwNTA5MDMzMjAzMTJ9LHsieCI6NDkwLjQyNzMyMjM4NzY5NTMsInkiOjU1OS40MDUwOTAzMzIwMzExfSx7IngiOjQzNS4yNjkyODcxMDkzNzUsInkiOjU1OS40MDUwOTAzMzIwMzExLCJwb3MiOiJyIn1d" data-look="neo" marker-end="url(#export-svg_flowchart-v2-pointEnd-margin)"/><path d="M604.607666015625,582.4219665527344L604.607666015625,622.4872055053711L604.607666015625,622.4872055053711L604.607666015625,658.5524444580078" id="export-svg-L_n13_n19_0" class="edge-thickness-normal edge-pattern-solid edge-thickness-normal edge-pattern-solid flowchart-link" style="stroke-dasharray: 0 0 72.13043212890625 4; stroke-dashoffset: 0;;" data-edge="true" data-et="edge" data-id="L_n13_n19_0" data-points="W3sieCI6NjA0LjYwNzY2NjAxNTYyNSwieSI6NTgyLjQyMTk2NjU1MjczNDQsInBvcyI6ImIifSx7IngiOjYwNC42MDc2NjYwMTU2MjUsInkiOjYyMi40ODcyMDU1MDUzNzExfSx7IngiOjYwNC42MDc2NjYwMTU2MjUsInkiOjYyMi40ODcyMDU1MDUzNzExfSx7IngiOjYwNC42MDc2NjYwMTU2MjUsInkiOjY2Mi41NTI0NDQ0NTgwMDc4LCJwb3MiOiJ0In1d" data-look="neo" marker-end="url(#export-svg_flowchart-v2-pointEnd-margin)"/><path d="M395.55229949951166,388.40571223884024L409.4961358159644,388.40571223884024Q416.6074210255464,388.40571223884024 416.68762837417745,395.5165451094149L417.5272136769153,469.9505074614566Q417.6074210255464,477.06134033203125 424.71870623512837,477.06134033203125L568.7017177917851,477.06134033203125Q575.7727856036506,477.06134033203125 575.7727856036506,484.1324081438967L575.7727856036506,531.3882141113281" id="export-svg-L_n6_n13_0" class="edge-thickness-thick edge-pattern-solid edge-thickness-normal edge-pattern-solid flowchart-link" style="stroke-dasharray: 0 0 310.2555236816406 4; stroke-dashoffset: 0;;" data-edge="true" data-et="edge" data-id="L_n6_n13_0" data-points="W3sieCI6Mzk1LjU1MjI5OTQ5OTUxMTY2LCJ5IjozODguNDA1NzEyMjM4ODQwMjQsInBvcyI6InIifSx7IngiOjQxNi42MDc0MjEwMjU1NDY0LCJ5IjozODguNDA1NzEyMjM4ODQwMjR9LHsieCI6NDE3LjYwNzQyMTAyNTU0NjQsInkiOjQ3Ny4wNjEzNDAzMzIwMzEyNX0seyJ4Ijo1NzUuNzcyNzg1NjAzNjUwNiwieSI6NDc3LjA2MTM0MDMzMjAzMTI1fSx7IngiOjU3NS43NzI3ODU2MDM2NTA2LCJ5Ijo1MzUuMzg4MjE0MTExMzI4MSwicG9zIjoidCJ9XQ==" data-look="neo" marker-end="url(#export-svg_flowchart-v2-pointEnd-margin)"/><path d="M335.504409790039,531.3124694824219L335.504409790039,472.9018783569336Q335.504409790039,472.6518783569336 335.254409790039,472.6518783569336L335.254409790039,472.6518783569336Q335.004409790039,472.6518783569336 335.004409790039,472.4018783569336L335.004409790039,417.9912872314453" id="export-svg-L_n14_n6_0" class="edge-thickness-normal edge-pattern-solid edge-thickness-normal edge-pattern-solid flowchart-link" style="stroke-dasharray: 0 0 109.63297271728516 4; stroke-dashoffset: 0;;" data-edge="true" data-et="edge" data-id="L_n14_n6_0" data-points="W3sieCI6MzM1LjUwNDQwOTc5MDAzOSwieSI6NTMxLjMxMjQ2OTQ4MjQyMTksInBvcyI6InQifSx7IngiOjMzNS41MDQ0MDk3OTAwMzksInkiOjQ3Mi42NTE4NzgzNTY5MzM2fSx7IngiOjMzNS4wMDQ0MDk3OTAwMzksInkiOjQ3Mi42NTE4NzgzNTY5MzM2fSx7IngiOjMzNS4wMDQ0MDk3OTAwMzksInkiOjQxMy45OTEyODcyMzE0NDUzLCJwb3MiOiJiIn1d" data-look="neo" marker-end="url(#export-svg_flowchart-v2-pointEnd-margin)"/></g><g class="edgeLabels"><g class="edgeLabel"><g class="label" data-id="L_n5_n7_0" transform="translate(0, 0)"><foreignObject width="0" height="0"><div xmlns="http://www.w3.org/1999/xhtml" class="labelBkg" style="display: table-cell; white-space: normal; overflow-wrap: break-word; line-height: 1.5; max-width: 200px; text-align: center;"><span class="edgeLabel"></span></div></foreignObject></g></g><g class="edgeLabel"><g class="label" data-id="L_n7_n8_0" transform="translate(0, 0)"><foreignObject width="0" height="0"><div xmlns="http://www.w3.org/1999/xhtml" class="labelBkg" style="display: table-cell; white-space: normal; overflow-wrap: break-word; line-height: 1.5; max-width: 200px; text-align: center;"><span class="edgeLabel"></span></div></foreignObject></g></g><g class="edgeLabel"><g class="label" data-id="L_n8_n13_0" transform="translate(0, 0)"><foreignObject width="0" height="0"><div xmlns="http://www.w3.org/1999/xhtml" class="labelBkg" style="display: table-cell; white-space: normal; overflow-wrap: break-word; line-height: 1.5; max-width: 200px; text-align: center;"><span class="edgeLabel"></span></div></foreignObject></g></g><g class="edgeLabel"><g class="label" data-id="L_n13_n14_0" transform="translate(0, 0)"><foreignObject width="0" height="0"><div xmlns="http://www.w3.org/1999/xhtml" class="labelBkg" style="display: table-cell; white-space: normal; overflow-wrap: break-word; line-height: 1.5; max-width: 200px; text-align: center;"><span class="edgeLabel"></span></div></foreignObject></g></g><g class="edgeLabel"><g class="label" data-id="L_n13_n19_0" transform="translate(0, 0)"><foreignObject width="0" height="0"><div xmlns="http://www.w3.org/1999/xhtml" class="labelBkg" style="display: table-cell; white-space: normal; overflow-wrap: break-word; line-height: 1.5; max-width: 200px; text-align: center;"><span class="edgeLabel"></span></div></foreignObject></g></g><g class="edgeLabel"><g class="label" data-id="L_n6_n13_0" transform="translate(0, 0)"><foreignObject width="0" height="0"><div xmlns="http://www.w3.org/1999/xhtml" class="labelBkg" style="display: table-cell; white-space: normal; overflow-wrap: break-word; line-height: 1.5; max-width: 200px; text-align: center;"><span class="edgeLabel"></span></div></foreignObject></g></g><g class="edgeLabel"><g class="label" data-id="L_n14_n6_0" transform="translate(0, 0)"><foreignObject width="0" height="0"><div xmlns="http://www.w3.org/1999/xhtml" class="labelBkg" style="display: table-cell; white-space: normal; overflow-wrap: break-word; line-height: 1.5; max-width: 200px; text-align: center;"><span class="edgeLabel"></span></div></foreignObject></g></g></g></g></g><defs><filter id="export-svg-drop-shadow" height="130%" width="130%"><feDropShadow dx="4" dy="4" stdDeviation="0" flood-opacity="0.06" flood-color="#000000"/></filter></defs><defs><filter id="export-svg-drop-shadow-small" height="150%" width="150%"><feDropShadow dx="2" dy="2" stdDeviation="0" flood-opacity="0.06" flood-color="#000000"/></filter></defs><linearGradient id="export-svg-gradient" gradientUnits="objectBoundingBox" x1="0%" y1="0%" x2="100%" y2="0%"><stop offset="0%" stop-color="#0042eb" stop-opacity="1"/><stop offset="100%" stop-color="#eb0042" stop-opacity="1"/></linearGradient></svg>